<?xml version="1.0" standalone="no"?>
<!DOCTYPE svg PUBLIC "-//W3C//DTD SVG 20010904//EN"
 "http://www.w3.org/TR/2001/REC-SVG-20010904/DTD/svg10.dtd">
<svg version="1.0" xmlns="http://www.w3.org/2000/svg"
 width="434.000000pt" height="290.000000pt" viewBox="0 0 434.000000 290.000000"
 preserveAspectRatio="xMidYMid meet">

<g transform="translate(0.000000,290.000000) scale(0.100000,-0.100000)"
fill="#000000" stroke="none">
<path d="M1774 1871 c-54 -25 -101 -83 -114 -143 -5 -28 -10 -178 -10 -348 l0
-299 -42 -3 c-43 -3 -43 -3 -43 -43 l0 -40 283 -3 c155 -1 282 -6 282 -10 0
-4 -15 -23 -32 -42 l-32 -35 -251 -5 -250 -5 0 -40 0 -40 203 -3 c111 -1 202
-5 202 -8 0 -3 -14 -24 -31 -45 l-30 -39 -172 -2 -172 -3 0 -40 0 -40 616 -3
c564 -2 618 -1 630 14 11 13 15 62 17 198 3 224 1 230 -81 234 l-57 3 0 89 c0
95 6 106 43 73 18 -17 20 -17 43 12 13 17 24 35 24 40 0 6 -25 28 -55 50 l-54
40 -1 118 0 117 -45 0 -45 0 0 -75 c0 -41 -3 -75 -6 -75 -3 0 -59 43 -124 95
-76 61 -127 95 -142 95 -13 -1 -75 -39 -143 -90 l-120 -89 -5 132 c-4 98 -10
140 -22 163 -20 37 -80 92 -115 105 -39 14 -104 10 -149 -10z m136 -86 c58
-30 60 -43 60 -390 l0 -315 -110 0 -110 0 0 326 0 326 34 34 c38 38 77 44 126
19z m559 -334 l131 -103 0 -134 0 -134 -64 0 -64 0 -4 100 c-2 62 -8 104 -16
112 -9 9 -47 13 -122 13 -75 0 -113 -4 -122 -13 -8 -8 -14 -50 -16 -112 l-4
-100 -64 0 -64 0 0 143 0 143 132 97 c73 53 136 96 140 95 4 -2 66 -50 137
-107z m-99 -306 l0 -65 -40 0 -40 0 0 65 0 65 40 0 40 0 0 -65z m28 -164 c-1
-5 -52 -65 -113 -135 l-109 -126 -75 0 c-69 0 -73 1 -60 18 8 9 61 70 118 135
l103 117 70 0 c38 0 68 -4 66 -9z m270 0 c-1 -5 -52 -65 -113 -135 l-109 -126
-75 0 c-69 0 -73 1 -60 18 8 9 61 70 118 135 l103 117 70 0 c38 0 68 -4 66 -9z
m59 -258 c-3 -2 -39 -3 -81 -1 l-76 3 77 90 78 90 3 -89 c2 -49 1 -90 -1 -93z"/>
</g>
</svg>
