<?xml version="1.0" standalone="no"?>
<!DOCTYPE svg PUBLIC "-//W3C//DTD SVG 20010904//EN"
 "http://www.w3.org/TR/2001/REC-SVG-20010904/DTD/svg10.dtd">
<svg version="1.0" xmlns="http://www.w3.org/2000/svg"
 width="286.000000pt" height="222.000000pt" viewBox="0 0 286.000000 222.000000"
 preserveAspectRatio="xMidYMid meet">

<g transform="translate(0.000000,222.000000) scale(0.100000,-0.100000)"
fill="#000000" stroke="none">
<path d="M965 1757 c-88 -29 -154 -80 -202 -155 -34 -53 -68 -169 -53 -185 4
-5 25 -7 46 -5 37 3 39 5 46 45 15 88 87 178 165 204 52 17 56 8 19 -44 -35
-49 -91 -175 -82 -185 3 -2 27 4 53 15 39 16 52 28 72 68 14 27 46 71 71 98
40 43 50 49 73 43 15 -3 27 -11 27 -16 0 -5 -16 -31 -36 -57 -41 -54 -60 -90
-51 -99 10 -11 87 -17 87 -7 0 12 69 93 80 93 17 0 50 -100 50 -153 l0 -54
-60 30 c-76 38 -180 47 -261 24 -187 -55 -300 -259 -244 -443 24 -79 28 -82
70 -60 40 22 39 19 20 71 -8 22 -14 60 -15 85 0 44 27 140 41 140 4 0 18 -37
33 -82 14 -46 34 -94 45 -107 l18 -24 32 22 c32 23 38 40 22 57 -19 19 -51
135 -51 184 0 44 3 52 24 60 57 21 59 19 63 -45 3 -62 40 -195 53 -195 16 0
70 35 70 45 0 6 -7 28 -15 50 -8 22 -14 68 -15 102 l0 62 46 -16 c25 -8 63
-32 85 -53 43 -41 43 -40 12 -170 -35 -145 -149 -329 -281 -452 l-51 -48 -111
0 -110 0 0 -45 0 -45 630 0 630 0 0 45 0 45 -114 0 -114 0 0 51 c-1 62 -32
131 -76 164 -80 61 -161 71 -245 29 -82 -41 -119 -103 -124 -205 l-2 -34 -113
-3 -114 -3 64 76 c93 112 106 131 154 230 36 77 65 169 88 286 10 49 109 130
171 141 17 2 20 -3 23 -37 2 -36 -13 -113 -32 -156 -5 -12 3 -23 29 -39 20
-12 37 -21 39 -19 26 30 56 142 56 209 0 35 3 40 24 40 13 0 34 -9 47 -19 23
-18 23 -20 11 -90 -7 -40 -23 -94 -37 -121 -14 -27 -25 -51 -25 -54 0 -7 70
-49 75 -45 13 13 55 112 65 152 7 26 16 49 20 52 14 9 40 -75 40 -129 0 -29
-7 -73 -15 -96 -14 -39 -14 -44 2 -56 26 -19 54 -27 63 -17 25 28 42 106 38
180 -7 139 -75 246 -196 305 -61 30 -75 33 -163 33 -88 0 -101 -3 -157 -32
l-62 -32 0 55 c0 61 34 154 55 154 15 0 75 -72 75 -90 0 -9 13 -11 47 -6 25 3
48 8 51 10 6 7 -17 46 -60 105 -42 56 -41 70 9 71 26 0 92 -74 130 -147 23
-43 36 -56 75 -72 48 -20 48 -20 48 0 0 27 -53 141 -86 184 -32 42 -27 51 19
36 78 -26 150 -116 165 -204 7 -41 8 -42 51 -45 l44 -3 -6 55 c-11 113 -93
220 -207 274 -46 22 -69 26 -145 27 -77 0 -98 -4 -148 -27 -34 -16 -80 -50
-113 -83 l-54 -56 -54 56 c-72 73 -146 107 -246 111 -45 2 -91 -1 -115 -9z
m666 -1000 c42 -28 59 -60 59 -114 l0 -43 -130 0 -130 0 0 43 c0 54 17 86 59
114 44 30 98 30 142 0z"/>
</g>
</svg>
