<?xml version="1.0" standalone="no"?>
<!DOCTYPE svg PUBLIC "-//W3C//DTD SVG 20010904//EN"
 "http://www.w3.org/TR/2001/REC-SVG-20010904/DTD/svg10.dtd">
<svg version="1.0" xmlns="http://www.w3.org/2000/svg"
 width="320.000000pt" height="260.000000pt" viewBox="0 0 320.000000 260.000000"
 preserveAspectRatio="xMidYMid meet">

<g transform="translate(0.000000,260.000000) scale(0.100000,-0.100000)"
fill="#000000" stroke="none">
<path d="M1080 1866 l0 -64 -74 -4 c-42 -2 -80 -9 -90 -17 -14 -12 -16 -65
-16 -550 0 -404 3 -540 12 -549 16 -16 1379 -17 1409 -2 18 10 19 27 19 549 0
487 -2 540 -16 552 -10 8 -48 15 -90 17 l-74 4 0 64 0 64 -45 0 -45 0 0 -65 0
-65 -450 0 -450 0 0 65 0 65 -45 0 -45 0 0 -64z m419 -183 c-7 -10 -58 -69
-112 -130 l-98 -113 -150 0 -149 0 0 130 0 130 261 0 c247 0 261 -1 248 -17z
m751 -113 l0 -130 -149 0 -150 0 -81 92 c-45 51 -95 110 -112 130 l-30 38 261
0 261 0 0 -130z m-592 68 c15 -18 73 -84 130 -147 l102 -116 0 -307 0 -308
-45 0 -45 0 0 129 c0 144 -7 171 -53 219 -66 68 -179 73 -244 10 -55 -53 -63
-82 -63 -227 l0 -131 -45 0 -45 0 0 308 0 307 81 90 c44 50 101 116 127 147
26 31 53 57 60 57 7 1 25 -13 40 -31z m-398 -493 c0 -107 -2 -195 -4 -195 -2
0 -20 7 -41 16 -21 8 -61 15 -90 15 -29 0 -69 -7 -90 -15 -21 -9 -39 -16 -41
-16 -2 0 -4 88 -4 195 l0 195 135 0 135 0 0 -195z m990 0 c0 -107 -2 -195 -4
-195 -2 0 -20 7 -41 16 -21 8 -61 15 -90 15 -29 0 -69 -7 -90 -15 -21 -9 -39
-16 -41 -16 -2 0 -4 88 -4 195 l0 195 135 0 135 0 0 -195z m-565 -100 c24 -23
25 -29 25 -155 l0 -130 -90 0 -90 0 0 120 c0 122 11 171 42 183 36 15 90 6
113 -18z m-495 -168 c29 -15 70 -72 70 -98 0 -18 -10 -19 -135 -19 -125 0
-135 1 -135 19 0 26 41 83 70 98 32 16 98 16 130 0z m990 0 c29 -15 70 -72 70
-98 0 -18 -10 -19 -135 -19 -125 0 -135 1 -135 19 0 26 41 83 70 98 32 16 98
16 130 0z"/>
<path d="M1584 1416 c-3 -8 -4 -25 -2 -38 2 -19 9 -23 38 -23 33 0 35 2 35 35
0 32 -3 35 -33 38 -21 2 -34 -2 -38 -12z"/>
</g>
</svg>
