<?xml version="1.0" standalone="no"?>
<!DOCTYPE svg PUBLIC "-//W3C//DTD SVG 20010904//EN"
 "http://www.w3.org/TR/2001/REC-SVG-20010904/DTD/svg10.dtd">
<svg version="1.0" xmlns="http://www.w3.org/2000/svg"
 width="316.000000pt" height="280.000000pt" viewBox="0 0 316.000000 280.000000"
 preserveAspectRatio="xMidYMid meet">

<g transform="translate(0.000000,280.000000) scale(0.100000,-0.100000)"
fill="#000000" stroke="none">
<path d="M1433 2070 c-64 -36 -99 -87 -113 -159 -5 -30 -10 -150 -10 -267 l0
-214 -39 0 -38 0 -6 100 c-6 116 -26 159 -88 190 -75 39 -147 20 -199 -52
l-30 -41 0 -151 c0 -83 5 -168 10 -188 16 -57 69 -119 129 -150 48 -25 63 -28
157 -28 l104 0 0 -135 0 -135 -200 0 -200 0 0 -45 0 -45 630 0 630 0 0 45 0
45 -200 0 -200 0 0 245 0 245 83 0 c155 0 246 42 292 133 23 48 25 61 25 196
0 167 -8 189 -80 237 -33 22 -48 26 -89 22 -97 -9 -142 -67 -149 -190 l-5 -78
-38 0 -39 0 0 104 c0 190 -28 261 -123 316 -40 23 -64 30 -107 30 -43 0 -67
-7 -107 -30z m178 -83 c53 -36 59 -56 59 -222 0 -101 4 -158 13 -175 12 -24
15 -25 127 -25 112 0 115 1 127 25 7 15 13 63 13 117 0 84 2 93 22 107 31 22
58 20 85 -6 22 -20 23 -29 23 -151 0 -114 -3 -134 -21 -163 -32 -53 -50 -59
-211 -64 -101 -3 -151 -9 -160 -18 -10 -10 -14 -80 -16 -292 l-3 -280 -130 0
-129 0 0 153 c0 212 9 201 -167 207 -156 6 -174 12 -220 80 -21 30 -23 44 -23
178 0 136 1 147 22 169 12 13 33 23 48 23 49 0 58 -23 62 -162 2 -87 7 -131
16 -140 18 -18 226 -18 244 0 10 10 14 83 18 301 5 313 4 305 65 343 41 25 95
23 136 -5z"/>
</g>
</svg>
