<?xml version="1.0" standalone="no"?>
<!DOCTYPE svg PUBLIC "-//W3C//DTD SVG 20010904//EN"
 "http://www.w3.org/TR/2001/REC-SVG-20010904/DTD/svg10.dtd">
<svg version="1.0" xmlns="http://www.w3.org/2000/svg"
 width="288.000000pt" height="262.000000pt" viewBox="0 0 288.000000 262.000000"
 preserveAspectRatio="xMidYMid meet">

<g transform="translate(0.000000,262.000000) scale(0.100000,-0.100000)"
fill="#000000" stroke="none">
<path d="M1460 1932 c-33 -10 -38 -34 -39 -204 l-1 -146 -37 -9 c-40 -9 -50
-27 -52 -95 -1 -31 -5 -38 -21 -38 -16 0 -19 8 -22 57 -3 50 -6 59 -28 71 -34
17 -200 12 -223 -7 -14 -11 -17 -35 -17 -140 l0 -127 45 -68 45 -69 0 -272 c0
-241 2 -274 17 -286 13 -11 81 -14 343 -14 262 0 330 3 343 14 15 12 17 45 17
287 l0 273 45 64 45 65 0 130 c0 108 -3 132 -17 143 -23 19 -189 24 -223 7
-22 -12 -25 -21 -28 -71 -3 -49 -6 -57 -22 -57 -16 0 -20 7 -21 38 -2 68 -12
86 -52 95 -35 8 -37 11 -37 47 l0 38 93 4 c127 4 127 4 127 138 0 88 -3 110
-17 121 -18 16 -219 23 -263 11z m190 -132 l0 -40 -65 0 -65 0 0 40 0 40 65 0
65 0 0 -40z m-450 -366 c0 -78 8 -84 109 -84 103 0 112 6 119 80 l5 50 37 0
37 0 5 -50 c7 -73 17 -80 110 -80 107 0 118 7 118 75 l0 55 45 0 45 0 0 -80
c0 -79 -1 -82 -45 -148 -26 -38 -45 -78 -45 -94 0 -24 -4 -27 -42 -30 l-43 -3
0 -45 0 -45 43 -3 42 -3 0 -175 0 -174 -45 0 -45 0 0 104 c0 118 -8 147 -53
194 -66 68 -179 73 -244 10 -53 -51 -63 -84 -63 -202 l0 -106 -45 0 -45 0 0
252 0 252 -45 67 c-44 66 -45 69 -45 148 l0 81 45 0 45 0 0 -46z m335 -519
c23 -23 25 -31 25 -130 l0 -105 -90 0 -90 0 0 95 c0 96 14 147 42 158 36 15
90 6 113 -18z"/>
<path d="M1514 1246 c-3 -8 -4 -27 -2 -43 3 -27 5 -28 71 -31 l67 -3 0 46 0
45 -65 0 c-47 0 -67 -4 -71 -14z"/>
</g>
</svg>
