<?xml version="1.0" standalone="no"?>
<!DOCTYPE svg PUBLIC "-//W3C//DTD SVG 20010904//EN"
 "http://www.w3.org/TR/2001/REC-SVG-20010904/DTD/svg10.dtd">
<svg version="1.0" xmlns="http://www.w3.org/2000/svg"
 width="310.000000pt" height="274.000000pt" viewBox="0 0 310.000000 274.000000"
 preserveAspectRatio="xMidYMid meet">

<g transform="translate(0.000000,274.000000) scale(0.100000,-0.100000)"
fill="#000000" stroke="none">
<path d="M963 1892 c-10 -6 -6 -28 17 -92 l29 -85 -29 -84 c-23 -65 -27 -87
-17 -93 6 -4 130 -8 275 -8 l262 0 0 -310 0 -310 -264 0 c-170 0 -267 -4 -271
-10 -13 -21 16 -155 44 -207 29 -53 26 -73 -9 -73 -34 0 -53 -53 -32 -87 11
-17 70 -2 118 31 52 35 95 34 157 -6 42 -27 59 -32 112 -32 53 0 70 5 112 32
30 20 63 32 83 32 20 0 53 -12 83 -32 71 -46 153 -46 224 0 62 40 105 41 157
6 48 -33 107 -48 118 -31 21 34 2 87 -32 87 -35 0 -40 21 -13 63 27 42 60 184
50 211 -6 14 -39 16 -272 16 l-265 0 0 40 0 40 238 1 c130 1 248 4 262 8 57
16 47 36 -245 474 -246 369 -280 416 -307 421 -45 9 -571 7 -585 -2z m537
-177 l0 -85 -214 0 -214 0 16 44 c15 40 15 47 0 85 l-16 41 214 0 214 0 0 -85z
m484 -597 l18 -28 -201 0 -201 0 0 302 0 303 183 -275 c101 -151 192 -287 201
-302z m51 -330 c-4 -13 -17 -41 -29 -63 -17 -31 -28 -41 -51 -43 -67 -6 -95
-14 -131 -39 -46 -31 -113 -36 -142 -10 -66 60 -198 60 -264 0 -29 -26 -96
-21 -142 10 -36 25 -64 33 -131 39 -23 2 -34 12 -51 43 -12 22 -25 50 -29 63
l-6 22 491 0 491 0 -6 -22z"/>
</g>
</svg>
