<?xml version="1.0" standalone="no"?>
<!DOCTYPE svg PUBLIC "-//W3C//DTD SVG 20010904//EN"
 "http://www.w3.org/TR/2001/REC-SVG-20010904/DTD/svg10.dtd">
<svg version="1.0" xmlns="http://www.w3.org/2000/svg"
 width="300.000000pt" height="220.000000pt" viewBox="0 0 300.000000 220.000000"
 preserveAspectRatio="xMidYMid meet">

<g transform="translate(0.000000,220.000000) scale(0.100000,-0.100000)"
fill="#000000" stroke="none">
<path d="M1620 1840 c0 -36 -29 -97 -59 -124 -12 -11 -42 -24 -68 -31 -47 -12
-48 -13 -51 -55 l-3 -43 51 6 c29 4 68 15 87 27 19 11 36 20 39 20 2 0 4 -20
4 -44 0 -71 -42 -112 -129 -125 -43 -6 -46 -8 -49 -40 -6 -55 -1 -59 63 -49
32 5 70 15 86 24 l29 15 0 -66 0 -65 -242 0 c-173 0 -250 -4 -267 -13 -15 -7
-47 -54 -83 -122 -33 -60 -78 -144 -100 -185 -164 -304 -172 -322 -146 -348
17 -17 1299 -17 1316 0 7 7 12 21 12 31 0 20 -66 149 -204 401 -42 76 -76 142
-76 145 0 4 -11 23 -25 43 -18 27 -35 39 -60 44 l-35 6 0 64 0 65 29 -15 c16
-9 54 -19 86 -24 64 -10 69 -6 63 49 -3 32 -6 34 -49 40 -87 13 -129 54 -129
126 l0 43 41 -20 c22 -12 63 -24 90 -27 l50 -6 -3 43 c-3 42 -4 43 -51 55 -26
7 -56 20 -68 31 -30 27 -59 88 -59 124 0 29 -2 30 -45 30 -43 0 -45 -1 -45
-30z m162 -745 c27 -49 79 -146 115 -215 36 -69 72 -134 79 -145 8 -11 14 -23
14 -27 0 -5 -116 -8 -259 -8 -195 0 -261 3 -268 13 -6 6 -34 57 -63 112 -29
55 -86 160 -126 233 l-73 132 266 -2 265 -3 50 -90z m-702 -220 l0 -175 -95 0
-95 0 12 28 c19 43 170 322 174 322 2 0 4 -79 4 -175z m185 10 c37 -71 74
-139 81 -150 8 -11 14 -23 14 -27 0 -5 -43 -8 -95 -8 l-95 0 0 172 c0 146 2
170 14 158 7 -8 44 -73 81 -145z"/>
<path d="M1005 1763 c-46 -24 -66 -45 -86 -88 -33 -71 -17 -158 38 -207 53
-48 140 -60 201 -29 46 23 67 46 87 94 28 68 11 152 -42 199 -50 46 -143 60
-198 31z m136 -102 c20 -20 29 -39 29 -61 0 -43 -47 -90 -90 -90 -43 0 -90 47
-90 90 0 43 47 90 90 90 22 0 41 -9 61 -29z"/>
</g>
</svg>
