<?xml version="1.0" standalone="no"?>
<!DOCTYPE svg PUBLIC "-//W3C//DTD SVG 20010904//EN"
 "http://www.w3.org/TR/2001/REC-SVG-20010904/DTD/svg10.dtd">
<svg version="1.0" xmlns="http://www.w3.org/2000/svg"
 width="312.000000pt" height="216.000000pt" viewBox="0 0 312.000000 216.000000"
 preserveAspectRatio="xMidYMid meet">

<g transform="translate(0.000000,216.000000) scale(0.100000,-0.100000)"
fill="#000000" stroke="none">
<path d="M1609 1830 c-73 -13 -139 -74 -139 -130 0 -16 6 -20 36 -20 27 0 43
7 64 30 23 25 36 30 73 30 30 0 53 -7 68 -19 l24 -20 -51 -45 c-52 -46 -84
-97 -84 -135 0 -18 6 -21 43 -21 39 1 43 3 62 43 30 63 50 60 64 -9 26 -131 4
-302 -54 -410 -14 -26 -25 -49 -25 -50 0 -2 23 -4 50 -4 l51 0 20 48 c54 123
73 286 49 412 -6 29 -8 55 -5 58 9 9 38 -23 52 -55 12 -29 18 -33 53 -33 36 0
40 2 40 25 0 59 -56 132 -123 160 -20 8 -37 20 -37 25 0 16 37 30 80 30 34 0
48 -6 70 -30 21 -23 37 -30 64 -30 30 0 36 4 36 20 0 47 -52 107 -109 125 -44
14 -121 7 -157 -14 -42 -25 -52 -26 -74 -6 -22 20 -95 33 -141 25z"/>
<path d="M1131 1720 c-214 -102 -348 -252 -339 -381 3 -44 3 -44 45 -47 l42
-3 3 -122 c3 -118 4 -122 28 -134 18 -9 95 -13 285 -13 190 0 267 4 285 13 24
12 25 16 28 134 l3 122 42 3 42 3 -1 60 c-2 129 -102 243 -308 350 -48 25 -88
45 -89 45 -1 0 -31 -14 -66 -30z m129 -100 c77 -39 178 -120 209 -166 17 -26
31 -51 31 -56 0 -4 -137 -8 -305 -8 -168 0 -305 4 -305 8 0 5 14 29 30 54 34
51 106 109 201 162 67 37 76 38 139 6z m160 -415 l0 -85 -89 0 -90 0 -3 43
c-3 42 -3 42 -43 42 -40 0 -40 0 -43 -42 l-3 -43 -90 0 -89 0 0 85 0 85 225 0
225 0 0 -85z"/>
<path d="M947 926 c-26 -7 -58 -23 -71 -35 -13 -12 -36 -25 -52 -30 -25 -6
-29 -13 -32 -49 -3 -42 -3 -42 30 -42 22 0 54 13 88 35 72 46 109 46 180 0 48
-31 62 -35 120 -35 58 0 72 4 120 35 72 46 109 46 180 0 48 -31 62 -35 120
-35 58 0 72 4 120 35 72 46 109 46 180 0 34 -22 67 -35 88 -35 33 0 33 0 30
42 -3 36 -7 43 -30 49 -15 4 -42 18 -60 32 -71 54 -179 51 -248 -6 -46 -39
-112 -38 -166 3 -79 57 -183 56 -254 -3 -45 -39 -112 -38 -166 2 -22 16 -53
33 -69 36 -17 4 -37 8 -45 10 -8 2 -37 -2 -63 -9z"/>
<path d="M919 693 c-19 -10 -48 -28 -63 -40 -16 -13 -37 -23 -47 -23 -16 0
-19 -8 -19 -45 0 -39 3 -45 20 -45 30 0 87 26 122 55 40 34 96 34 136 0 86
-73 198 -73 284 0 40 34 96 34 136 0 86 -73 198 -73 284 0 40 34 96 34 136 0
35 -29 92 -55 122 -55 17 0 20 6 20 45 0 35 -4 45 -17 45 -9 0 -41 17 -70 37
-89 61 -181 56 -266 -14 -43 -35 -90 -31 -154 14 -89 61 -181 56 -266 -14 -43
-35 -90 -31 -154 14 -66 45 -145 55 -204 26z"/>
</g>
</svg>
