<?xml version="1.0" standalone="no"?>
<!DOCTYPE svg PUBLIC "-//W3C//DTD SVG 20010904//EN"
 "http://www.w3.org/TR/2001/REC-SVG-20010904/DTD/svg10.dtd">
<svg version="1.0" xmlns="http://www.w3.org/2000/svg"
 width="286.000000pt" height="276.000000pt" viewBox="0 0 286.000000 276.000000"
 preserveAspectRatio="xMidYMid meet">

<g transform="translate(0.000000,276.000000) scale(0.100000,-0.100000)"
fill="#000000" stroke="none">
<path d="M810 1936 c0 -40 -34 -92 -79 -123 -19 -13 -49 -23 -67 -23 -34 0
-34 -1 -34 -45 0 -44 1 -45 33 -45 17 1 50 8 72 16 86 33 91 30 52 -27 -31
-45 -83 -79 -123 -79 -34 0 -34 0 -34 -46 l0 -47 51 6 c28 4 67 15 86 27 19
11 36 20 39 20 2 0 4 -31 4 -69 l0 -68 -52 -7 c-29 -4 -70 -11 -90 -17 -37 -9
-38 -11 -38 -54 0 -25 3 -45 8 -45 4 1 34 7 67 15 93 23 226 19 336 -9 108
-27 169 -51 169 -65 0 -5 -24 -23 -53 -40 -29 -17 -88 -60 -130 -96 l-77 -65
-87 10 c-49 5 -121 10 -160 10 l-73 0 0 -45 0 -45 73 0 c131 0 332 -32 452
-72 33 -11 155 -60 272 -109 216 -91 321 -125 409 -130 l49 -3 0 44 0 45 -61
7 c-85 9 -163 35 -344 114 -85 37 -210 86 -278 109 -67 23 -125 45 -128 47
-10 11 123 102 203 140 182 85 365 99 586 43 26 -7 27 -6 27 38 0 37 -4 47
-20 52 -18 6 -20 15 -20 80 0 68 1 73 20 68 20 -5 59 30 60 54 0 7 -77 74
-171 149 -134 107 -175 135 -192 130 -12 -3 -52 -30 -89 -61 -37 -30 -70 -55
-72 -55 -3 0 -6 17 -8 38 -3 37 -3 37 -48 37 l-45 0 -3 -82 -3 -82 -39 -31
c-22 -18 -40 -37 -40 -43 1 -21 47 -70 54 -58 17 27 26 6 26 -60 0 -53 -3 -70
-12 -66 -141 62 -294 106 -365 107 -22 0 -23 4 -23 70 0 39 1 70 3 70 1 0 24
-11 51 -25 27 -14 67 -25 88 -25 l38 0 0 45 c0 43 -1 45 -30 45 -53 0 -109 40
-140 98 -17 34 -7 37 49 13 27 -11 66 -21 85 -21 36 0 36 0 36 45 0 44 0 45
-34 45 -65 0 -146 81 -146 146 0 34 -1 34 -45 34 -44 0 -45 0 -45 -34z m859
-325 l81 -63 0 -110 c0 -110 0 -110 -22 -104 -13 3 -42 6 -65 6 l-42 0 -3 68
-3 67 -40 0 -40 0 -5 -70 -5 -69 -62 -11 -63 -12 0 118 0 117 83 66 c45 36 87
64 94 63 6 -1 48 -31 92 -66z"/>
</g>
</svg>
